<svg xmlns="http://www.w3.org/2000/svg" viewBox="0 0 600 320">
<g stroke="rgba(140,180,220,.16)" fill="none" stroke-width=".8" stroke-linecap="round">
<path d="M0 5H50"/>
<path d="M0 15H50"/>
<path d="M0 25H50"/>
<path d="M0 35H50"/>
<path d="M0 45H50"/>
<path d="M0 55H50"/>
<path d="M0 65H50"/>
<path d="M0 75H50"/>
<path d="M0 85H50"/>
<path d="M0 95H50"/>
<path d="M0 105H50"/>
<path d="M0 115H50"/>
<path d="M0 125H50"/>
<path d="M0 135H50"/>
<path d="M0 145H50"/>
<path d="M0 155H50"/>
<path d="M0 165H50"/>
<path d="M0 175H50"/>
<path d="M0 185H50"/>
<path d="M0 195H50"/>
<path d="M0 205H50"/>
<path d="M0 215H50"/>
<path d="M0 225H50"/>
<path d="M0 235H50"/>
<path d="M0 245H50"/>
<path d="M0 255H50"/>
<path d="M0 265H50"/>
<path d="M0 275H50"/>
<path d="M0 285H50"/>
<path d="M0 295H50"/>
<path d="M0 305H50"/>
<path d="M0 315H50"/>
<path d="M50 5V15"/>
<path d="M50 10H130"/>
<path d="M50 25V35"/>
<path d="M50 30H130"/>
<path d="M50 45V55"/>
<path d="M50 50H130"/>
<path d="M50 65V75"/>
<path d="M50 70H130"/>
<path d="M50 85V95"/>
<path d="M50 90H130"/>
<path d="M50 105V115"/>
<path d="M50 110H130"/>
<path d="M50 125V135"/>
<path d="M50 130H130"/>
<path d="M50 145V155"/>
<path d="M50 150H130"/>
<path d="M50 165V175"/>
<path d="M50 170H130"/>
<path d="M50 185V195"/>
<path d="M50 190H130"/>
<path d="M50 205V215"/>
<path d="M50 210H130"/>
<path d="M50 225V235"/>
<path d="M50 230H130"/>
<path d="M50 245V255"/>
<path d="M50 250H130"/>
<path d="M50 265V275"/>
<path d="M50 270H130"/>
<path d="M50 285V295"/>
<path d="M50 290H130"/>
<path d="M50 305V315"/>
<path d="M50 310H130"/>
<path d="M130 10V30"/>
<path d="M130 20H230"/>
<path d="M130 50V70"/>
<path d="M130 60H230"/>
<path d="M130 90V110"/>
<path d="M130 100H230"/>
<path d="M130 130V150"/>
<path d="M130 140H230"/>
<path d="M130 170V190"/>
<path d="M130 180H230"/>
<path d="M130 210V230"/>
<path d="M130 220H230"/>
<path d="M130 250V270"/>
<path d="M130 260H230"/>
<path d="M130 290V310"/>
<path d="M130 300H230"/>
<path d="M230 20V60"/>
<path d="M230 40H350"/>
<path d="M230 100V140"/>
<path d="M230 120H350"/>
<path d="M230 180V220"/>
<path d="M230 200H350"/>
<path d="M230 260V300"/>
<path d="M230 280H350"/>
<path d="M350 40V120"/>
<path d="M350 80H500"/>
<path d="M350 200V280"/>
<path d="M350 240H500"/>
<path d="M500 80V240"/>
<path d="M500 160H600"/>
</g>
<circle cx="50" cy="10" r="1.0" fill="rgba(140,180,220,0.13)"/>
<circle cx="50" cy="30" r="1.0" fill="rgba(140,180,220,0.13)"/>
<circle cx="50" cy="50" r="1.0" fill="rgba(140,180,220,0.13)"/>
<circle cx="50" cy="70" r="1.0" fill="rgba(140,180,220,0.13)"/>
<circle cx="50" cy="90" r="1.0" fill="rgba(140,180,220,0.13)"/>
<circle cx="50" cy="110" r="1.0" fill="rgba(140,180,220,0.13)"/>
<circle cx="50" cy="130" r="1.0" fill="rgba(140,180,220,0.13)"/>
<circle cx="50" cy="150" r="1.0" fill="rgba(140,180,220,0.13)"/>
<circle cx="50" cy="170" r="1.0" fill="rgba(140,180,220,0.13)"/>
<circle cx="50" cy="190" r="1.0" fill="rgba(140,180,220,0.13)"/>
<circle cx="50" cy="210" r="1.0" fill="rgba(140,180,220,0.13)"/>
<circle cx="50" cy="230" r="1.0" fill="rgba(140,180,220,0.13)"/>
<circle cx="50" cy="250" r="1.0" fill="rgba(140,180,220,0.13)"/>
<circle cx="50" cy="270" r="1.0" fill="rgba(140,180,220,0.13)"/>
<circle cx="50" cy="290" r="1.0" fill="rgba(140,180,220,0.13)"/>
<circle cx="50" cy="310" r="1.0" fill="rgba(140,180,220,0.13)"/>
<circle cx="130" cy="20" r="1.4" fill="rgba(140,180,220,0.16)"/>
<circle cx="130" cy="60" r="1.4" fill="rgba(140,180,220,0.16)"/>
<circle cx="130" cy="100" r="1.4" fill="rgba(140,180,220,0.16)"/>
<circle cx="130" cy="140" r="1.4" fill="rgba(140,180,220,0.16)"/>
<circle cx="130" cy="180" r="1.4" fill="rgba(140,180,220,0.16)"/>
<circle cx="130" cy="220" r="1.4" fill="rgba(140,180,220,0.16)"/>
<circle cx="130" cy="260" r="1.4" fill="rgba(140,180,220,0.16)"/>
<circle cx="130" cy="300" r="1.4" fill="rgba(140,180,220,0.16)"/>
<circle cx="230" cy="40" r="1.8" fill="rgba(140,180,220,0.19)"/>
<circle cx="230" cy="120" r="1.8" fill="rgba(140,180,220,0.19)"/>
<circle cx="230" cy="200" r="1.8" fill="rgba(140,180,220,0.19)"/>
<circle cx="230" cy="280" r="1.8" fill="rgba(140,180,220,0.19)"/>
<circle cx="350" cy="80" r="2.2" fill="rgba(140,180,220,0.22)"/>
<circle cx="350" cy="240" r="2.2" fill="rgba(140,180,220,0.22)"/>
<circle cx="500" cy="160" r="2.6" fill="rgba(140,180,220,0.25)"/>
<circle cx="600" cy="160" r="4" fill="rgba(140,180,220,.25)"/>
<circle cx="600" cy="160" r="8" fill="none" stroke="rgba(140,180,220,.1)" stroke-width="1.5"/>
</svg>